<svg width="24" height="24" viewBox="0 0 24 24" fill="none" xmlns="http://www.w3.org/2000/svg">
<path d="M12 8.5V10.5M11.9979 20.5358L14.738 18.2657C14.9173 18.1171 15.143 18.0358 15.3759 18.0358L18.0022 18.0358C19.1068 18.0357 20.0022 17.1403 20.0022 16.0358V6C20.0022 4.89543 19.1068 4 18.0022 4L6.00219 4.00002C4.89763 4.00002 4.0022 4.89545 4.0022 6.00002V16.0358C4.0022 17.1403 4.89763 18.0358 6.0022 18.0358H8.65182C8.88675 18.0358 9.11418 18.1185 9.29422 18.2694L11.9979 20.5358Z" stroke="black" stroke-width="2" stroke-linecap="round" stroke-linejoin="round"/>
<path d="M12 13.5H12.01M12.25 13.5C12.25 13.6381 12.1381 13.75 12 13.75C11.8619 13.75 11.75 13.6381 11.75 13.5C11.75 13.3619 11.8619 13.25 12 13.25C12.1381 13.25 12.25 13.3619 12.25 13.5Z" stroke="black" stroke-width="2" stroke-linecap="round"/>
</svg>
